<svg width="20" height="20" viewBox="0 0 20 20" fill="none" xmlns="http://www.w3.org/2000/svg">
    <g clip-path="url(#6eabc8i2ra)" fill="#04091E">
        <path d="M15.35 7.797a4.398 4.398 0 0 0 1.597-3.392A4.41 4.41 0 0 0 12.542 0a4.41 4.41 0 0 0-4.307 5.33 4.41 4.41 0 0 0-5.178 4.337c0 1.364.623 2.584 1.597 3.393C1.927 14.17 0 16.85 0 19.973h1.563c0-3.253 2.647-5.9 5.9-5.9a4.41 4.41 0 0 0 4.307-5.33c.25.044.508.067.772.067 1.917 0 3.623.92 4.701 2.34l1.06-1.178a7.501 7.501 0 0 0-2.953-2.175zM7.463 12.51A2.846 2.846 0 0 1 4.62 9.668a2.846 2.846 0 0 1 2.843-2.842 2.846 2.846 0 0 1 2.842 2.842 2.846 2.846 0 0 1-2.842 2.843zm5.079-5.264A2.846 2.846 0 0 1 9.7 4.405a2.846 2.846 0 0 1 2.842-2.842 2.846 2.846 0 0 1 2.842 2.842 2.845 2.845 0 0 1-2.842 2.842z"/>
        <path d="m18.837 11.714-5.428 6.044-3.063-2.916-1.078 1.132 4.229 4.025L20 12.76l-1.163-1.045z"/>
    </g>
    <defs>
        <clipPath id="6eabc8i2ra">
            <path fill="#fff" d="M0 0h20v20H0z"/>
        </clipPath>
    </defs>
</svg>
