<svg width="20" height="20" viewBox="0 0 20 20" fill="none" xmlns="http://www.w3.org/2000/svg">
    <path d="M18.476 9.67a5.187 5.187 0 0 0-6.427-.743 3.995 3.995 0 0 0-2.096-1.5l-.67-.2-2.876 2.897L3.53 7.228l-.673.2A4.012 4.012 0 0 0 0 11.296v3.552h9.795a5.22 5.22 0 0 0 1.315 2.24 5.174 5.174 0 0 0 3.683 1.535 5.174 5.174 0 0 0 3.683-1.534 5.278 5.278 0 0 0 0-7.42zm-8.848 4.34H.833v-2.713c0-1.424.91-2.656 2.263-3.065l.196-.058 3.115 3.137 3.115-3.137.194.057a3.163 3.163 0 0 1 1.663 1.195c-.091.08-.183.158-.27.245a5.258 5.258 0 0 0-1.48 4.339zm2.071-3.746a4.347 4.347 0 0 1 3.094-1.288c.99 0 1.979.336 2.784 1.007l-6.158 6.202a4.435 4.435 0 0 1 .28-5.92zm6.188 6.232a4.358 4.358 0 0 1-5.878.282l6.158-6.202a4.435 4.435 0 0 1-.28 5.92zM6.25 1C4.642 1 3.333 2.318 3.333 3.938s1.31 2.938 2.917 2.938c1.609 0 2.917-1.319 2.917-2.938C9.167 2.318 7.86 1 6.25 1zm0 5.036a2.093 2.093 0 0 1-2.083-2.098c0-1.157.935-2.099 2.083-2.099 1.15 0 2.084.942 2.084 2.099A2.093 2.093 0 0 1 6.25 6.036z" fill="#04091E"/>
</svg>
