<svg width="20" height="20" viewBox="0 0 20 20" fill="none" xmlns="http://www.w3.org/2000/svg">
    <path d="M3.5 10.133a.3.3 0 0 1-.3-.3V3.5a.3.3 0 0 1 .3-.3h4.667a.3.3 0 0 1 .3.3v6.333a.3.3 0 0 1-.3.3H3.5zm0 6.667a.3.3 0 0 1-.3-.3v-3a.3.3 0 0 1 .3-.3h4.667a.3.3 0 0 1 .3.3v3a.3.3 0 0 1-.3.3H3.5zm8.333 0a.3.3 0 0 1-.3-.3v-6.333a.3.3 0 0 1 .3-.3H16.5a.3.3 0 0 1 .3.3V16.5a.3.3 0 0 1-.3.3h-4.667zm-.3-13.3a.3.3 0 0 1 .3-.3H16.5a.3.3 0 0 1 .3.3v3a.3.3 0 0 1-.3.3h-4.667a.3.3 0 0 1-.3-.3v-3z" stroke="#04091E" stroke-width="1.4"/>
</svg>
