<svg width="81" height="92" viewBox="0 0 81 92" fill="none" xmlns="http://www.w3.org/2000/svg">
    <path fill-rule="evenodd" clip-rule="evenodd" d="M6.16 48.26v38.547c0 2.528 2.064 4.578 4.61 4.578h64.71c2.545 0 4.61-2.05 4.61-4.578V48.259H6.16zM78.433 45.022 45.51 21.304a4.09 4.09 0 0 0-4.77 0L7.816 45.022a3.965 3.965 0 0 0-1.656 3.214v.023h73.93v-.023c0-1.27-.616-2.465-1.657-3.214z" fill="#C7D8F1"/>
    <path fill-rule="evenodd" clip-rule="evenodd" d="M69.408 41.756H17.527c-.796 0-1.441.639-1.441 1.427v40.614c0 .789.645 1.427 1.44 1.427h51.882c.796 0 1.44-.638 1.44-1.427V43.183c0-.788-.644-1.427-1.44-1.427z" fill="#fff"/>
    <path fill-rule="evenodd" clip-rule="evenodd" d="M24.685 54.42H62.59c.402 0 .727-.306.727-.684 0-.38-.325-.685-.727-.685H24.685c-.402 0-.728.306-.728.685 0 .378.326.684.728.684zM62.59 59.554H24.685c-.402 0-.728.307-.728.685 0 .378.326.684.728.684H62.59c.402 0 .727-.306.727-.684 0-.378-.325-.685-.727-.685zM62.59 65.373H24.685c-.402 0-.728.306-.728.684 0 .378.326.685.728.685H62.59c.402 0 .727-.307.727-.685 0-.378-.325-.684-.727-.684z" fill="#2C495B"/>
    <path fill-rule="evenodd" clip-rule="evenodd" d="M10.953 91.385H75.57c2.497 0 4.52-2.015 4.52-4.5V48.258L10.954 91.385z" fill="#FF624B"/>
    <path fill-rule="evenodd" clip-rule="evenodd" d="M6.16 48.26v38.624c0 2.486 2.024 4.5 4.52 4.5h64.618L6.16 48.26zM28.065 2.396l1.756 4.063 4.062 1.755-4.062 1.756-1.756 4.063-1.756-4.063-4.063-1.756L26.31 6.46l1.756-4.063zM75.641 19.167l1.342 3.106 3.107 1.343-3.107 1.343-1.342 3.107-1.343-3.107-3.107-1.343 3.107-1.343 1.343-3.106zM9.756 24.3l.98 2.271 2.27.982-2.27.98-.98 2.27-.982-2.27-2.27-.98 2.27-.982.982-2.27z" fill="#F94025"/>
    <path fill-rule="evenodd" clip-rule="evenodd" d="M61.524.121a3.764 3.764 0 1 1-1.886 7.289A3.764 3.764 0 0 1 61.524.12zM5.134 14.204a2.567 2.567 0 1 1-5.134 0 2.567 2.567 0 0 1 5.134 0z" fill="#FF624B"/>
</svg>
