<svg width="20" height="20" viewBox="0 0 20 20" fill="none" xmlns="http://www.w3.org/2000/svg">
    <path d="M17.615 17H6.303c-.466 0-.844-.448-.844-1s.378-1 .844-1h11.312c.466 0 .844.448.844 1s-.378 1-.844 1zM17.615 11H6.303c-.466 0-.844-.448-.844-1s.378-1 .844-1h11.312c.466 0 .844.448.844 1s-.378 1-.844 1zM17.615 5H6.303c-.466 0-.844-.448-.844-1s.378-1 .844-1h11.312c.466 0 .844.448.844 1s-.378 1-.844 1zM2.304 5.252a1.304 1.304 0 1 0 0-2.608 1.304 1.304 0 0 0 0 2.608zM2.304 11.271a1.304 1.304 0 1 0 0-2.607 1.304 1.304 0 0 0 0 2.607zM2.304 17.291a1.304 1.304 0 1 0 0-2.608 1.304 1.304 0 0 0 0 2.608z" fill="#04091E"/>
</svg>
