<svg width="532" height="502" viewBox="0 0 532 502" fill="none" xmlns="http://www.w3.org/2000/svg">
    <path d="M501.755 217.514S429.329 40.864 296.926 6.687C164.523-27.488 108.959 76.85 88.703 149.275 68.446 221.588-6.356 317.438.434 383.187c6.45 62.58 61.222 92.116 112.486 104.791 65.07 16.182 138.967 17.314 204.263 3.961 15.503-3.169 30.781-7.469 45.945-12.449 30.667-9.958 60.769-17.766 91.89-26.027 59.072-15.73 82.497-79.216 75.82-139.986-3.734-34.288-16.296-64.843-29.083-95.963z" fill="#F94025"/>
    <path opacity=".8" d="M501.755 217.514S429.329 40.864 296.926 6.687C164.523-27.488 108.959 76.85 88.703 149.275 68.446 221.588-6.356 317.438.434 383.187c6.45 62.58 61.222 92.116 112.486 104.791 65.07 16.182 138.967 17.314 204.263 3.961 15.503-3.169 30.781-7.469 45.945-12.449 30.667-9.958 60.769-17.766 91.89-26.027 59.072-15.73 82.497-79.216 75.82-139.986-3.734-34.288-16.296-64.843-29.083-95.963z" fill="#fff"/>
    <g opacity=".2" fill="#000">
        <path opacity=".2" d="M410.43 295.937c-.792-.227-1.018-.792-.792-1.471l.113-.114c.226-.679.792-.905 1.471-.679.679.227 1.811.793 2.603 1.358-.226-.905-.453-2.263-.453-3.055 0-.679.453-1.245 1.132-1.245h.113c.679 0 1.132.453 1.132 1.245s-.227 2.037-.453 3.055c.905-.565 1.924-1.131 2.603-1.358.679-.226 1.245 0 1.471.679v.114c.226.679 0 1.244-.792 1.471-.679.226-1.924.452-2.942.452.792.566 1.697 1.472 2.15 2.037.452.566.339 1.245-.227 1.585l-.113.113c-.566.453-1.131.339-1.584-.34-.453-.565-.905-1.584-1.358-2.716-.453 1.019-.905 2.037-1.358 2.716-.453.566-1.019.793-1.584.34l-.113-.113c-.566-.453-.566-1.019-.227-1.585.453-.565 1.358-1.471 2.15-2.037-1.018-.113-2.263-.226-2.942-.452zM421.86 295.937c-.792-.227-1.019-.793-.792-1.472l.113-.113c.226-.679.792-.905 1.471-.679.679.227 1.81.792 2.603 1.358-.227-.905-.453-2.263-.453-3.055 0-.679.453-1.245 1.132-1.245h.113c.679 0 1.131.453 1.131 1.245s-.226 2.037-.452 3.055c.905-.566 1.924-1.131 2.603-1.358.679-.226 1.244 0 1.471.679v.113c.226.679 0 1.245-.792 1.472-.679.226-1.924.452-2.943.452.792.566 1.698 1.471 2.15 2.037.453.566.34 1.245-.226 1.584l-.113.114c-.566.452-1.132.339-1.584-.34-.453-.566-.906-1.584-1.358-2.716-.453 1.019-.906 2.037-1.358 2.716-.453.566-1.019.792-1.585.34l-.113-.114c-.566-.452-.566-1.018-.226-1.584.453-.566 1.358-1.471 2.15-2.037-1.018-.113-2.263-.226-2.942-.452zM433.289 295.937c-.792-.227-1.018-.793-.792-1.472l.113-.113c.227-.679.793-.905 1.472-.679.679.227 1.81.792 2.602 1.358-.226-.905-.452-2.263-.452-3.055 0-.679.452-1.245 1.131-1.245h.114c.679 0 1.131.453 1.131 1.245s-.226 2.037-.453 3.055c.906-.566 1.924-1.131 2.603-1.358.679-.226 1.245 0 1.471.679v.113c.227.679 0 1.245-.792 1.472-.679.226-1.924.452-2.942.452.792.566 1.697 1.471 2.15 2.037.453.566.34 1.245-.226 1.584l-.113.114c-.566.452-1.132.339-1.585-.34-.452-.566-.905-1.584-1.358-2.716-.452 1.019-.905 2.037-1.358 2.716-.452.566-1.018.792-1.584.34l-.113-.114c-.566-.452-.566-1.018-.226-1.584.452-.566 1.358-1.471 2.15-2.037-.906-.113-2.15-.226-2.943-.452zM444.832 295.937c-.792-.227-1.018-.793-.792-1.472l.113-.113c.227-.679.793-.905 1.472-.679.679.227 1.81.792 2.602 1.358-.226-.905-.452-2.263-.452-3.055 0-.679.452-1.245 1.131-1.245h.113c.679 0 1.132.453 1.132 1.245s-.226 2.037-.453 3.055c.906-.566 1.924-1.131 2.603-1.358.679-.226 1.245 0 1.471.679v.113c.227.679 0 1.245-.792 1.472-.679.226-1.924.452-2.942.452.792.566 1.697 1.471 2.15 2.037.453.566.34 1.245-.226 1.584l-.113.114c-.566.452-1.132.339-1.585-.34-.452-.566-.905-1.584-1.358-2.716-.452 1.019-.905 2.037-1.358 2.716-.452.566-1.018.792-1.584.34l-.113-.114c-.566-.452-.566-1.018-.226-1.584.452-.566 1.357-1.471 2.15-2.037-1.019-.113-2.264-.226-2.943-.452zM456.262 295.937c-.792-.227-1.018-.793-.792-1.472l.113-.113c.226-.679.792-.905 1.471-.679.679.227 1.811.792 2.603 1.358-.226-.905-.453-2.263-.453-3.055 0-.679.453-1.245 1.132-1.245h.113c.679 0 1.132.453 1.132 1.245s-.227 2.037-.453 3.055c.905-.566 1.924-1.131 2.603-1.358.679-.226 1.245 0 1.471.679v.113c.226.679 0 1.245-.792 1.472-.679.226-1.924.452-2.942.452.792.566 1.697 1.471 2.15 2.037.452.566.339 1.245-.227 1.584l-.113.114c-.566.452-1.131.339-1.584-.34-.453-.566-.905-1.584-1.358-2.716-.453 1.019-.905 2.037-1.358 2.716-.453.566-1.018.792-1.584.34l-.113-.114c-.566-.452-.566-1.018-.227-1.584.453-.566 1.358-1.471 2.15-2.037-1.018-.113-2.263-.226-2.942-.452zM467.805 295.937c-.792-.227-1.018-.793-.792-1.472l.113-.113c.226-.679.792-.905 1.471-.679.679.227 1.811.792 2.603 1.358-.226-.905-.453-2.263-.453-3.055 0-.679.453-1.245 1.132-1.245h.113c.679 0 1.132.453 1.132 1.245s-.227 2.037-.453 3.055c.905-.566 1.924-1.131 2.603-1.358.679-.226 1.245 0 1.471.679v.113c.226.679 0 1.245-.792 1.472-.679.226-1.924.452-2.942.452.792.566 1.697 1.471 2.15 2.037.452.566.339 1.245-.227 1.584l-.113.114c-.566.452-1.131.339-1.584-.34-.453-.566-.905-1.584-1.358-2.716-.453 1.019-.905 2.037-1.358 2.716-.453.566-1.018.792-1.584.34l-.113-.114c-.566-.452-.566-1.018-.227-1.584.453-.566 1.358-1.471 2.15-2.037-1.018-.113-2.263-.226-2.942-.452zM479.235 295.937c-.792-.227-1.019-.793-.792-1.472l.113-.113c.226-.679.792-.905 1.471-.679.679.227 1.811.792 2.603 1.358-.227-.905-.453-2.263-.453-3.055 0-.679.453-1.245 1.132-1.245h.113c.679 0 1.131.453 1.131 1.245s-.226 2.037-.452 3.055c.905-.566 1.924-1.131 2.603-1.358.679-.226 1.244 0 1.471.679v.113c.226.679 0 1.245-.792 1.472-.679.226-1.924.452-2.943.452.792.566 1.698 1.471 2.15 2.037.453.566.34 1.245-.226 1.584l-.113.114c-.566.452-1.132.339-1.584-.34-.453-.566-.906-1.584-1.358-2.716-.453 1.019-.906 2.037-1.358 2.716-.453.566-1.019.792-1.585.34l-.113-.114c-.566-.452-.566-1.018-.226-1.584.453-.566 1.358-1.471 2.15-2.037-1.018-.113-2.263-.226-2.942-.452zM490.664 295.937c-.792-.227-1.018-.793-.792-1.472l.113-.113c.227-.679.793-.905 1.472-.679.679.227 1.81.792 2.602 1.358-.226-.905-.452-2.263-.452-3.055 0-.679.452-1.245 1.131-1.245h.113c.679 0 1.132.453 1.132 1.245s-.226 2.037-.453 3.055c.906-.566 1.924-1.131 2.603-1.358.679-.226 1.245 0 1.471.679v.113c.227.679 0 1.245-.792 1.472-.679.226-1.924.452-2.942.452.792.566 1.697 1.471 2.15 2.037.453.566.34 1.245-.226 1.584l-.113.114c-.566.452-1.132.339-1.585-.34-.452-.566-.905-1.584-1.358-2.716-.452 1.019-.905 2.037-1.358 2.716-.452.566-1.018.792-1.584.34l-.113-.114c-.566-.452-.566-1.018-.226-1.584.452-.566 1.358-1.471 2.15-2.037-.906-.113-2.15-.226-2.943-.452z"/>
    </g>
    <g opacity=".2" fill="#000">
        <path opacity=".2" d="M184.664 41.881c-.792-.226-1.018-.792-.792-1.47l.113-.114c.227-.679.793-.905 1.472-.679.679.226 1.81.792 2.602 1.358-.226-.905-.452-2.263-.452-3.055 0-.68.452-1.245 1.131-1.245h.113c.679 0 1.132.453 1.132 1.245s-.226 2.037-.453 3.055c.906-.566 1.924-1.132 2.603-1.358.679-.226 1.245 0 1.471.68v.112c.227.68 0 1.245-.792 1.471-.679.227-1.924.453-2.942.453.792.566 1.697 1.471 2.15 2.037.453.566.34 1.245-.226 1.584l-.113.114c-.566.452-1.132.339-1.585-.34-.452-.566-.905-1.584-1.358-2.716-.452 1.019-.905 2.037-1.358 2.716-.452.566-1.018.792-1.584.34l-.113-.114c-.566-.452-.566-1.018-.226-1.584.452-.566 1.358-1.471 2.15-2.037-1.019-.113-2.264-.226-2.943-.453zM196.094 41.881c-.792-.226-1.018-.792-.792-1.47l.113-.114c.226-.68.792-.905 1.471-.68.679.227 1.811.793 2.603 1.359-.226-.905-.453-2.263-.453-3.056 0-.678.453-1.244 1.132-1.244h.113c.679 0 1.132.452 1.132 1.244 0 .793-.226 2.037-.453 3.056.905-.566 1.924-1.132 2.603-1.358.679-.226 1.245 0 1.471.679v.113c.226.68 0 1.245-.792 1.471-.679.227-1.924.453-2.942.453.792.566 1.697 1.471 2.15 2.037.452.566.339 1.245-.227 1.584l-.113.113c-.566.453-1.131.34-1.584-.34-.453-.565-.905-1.584-1.358-2.715-.453 1.018-.905 2.037-1.358 2.716-.453.566-1.018.792-1.584.34l-.113-.114c-.566-.453-.566-1.018-.227-1.584.453-.566 1.358-1.471 2.15-2.037-1.018-.113-2.15-.226-2.942-.453zM207.637 41.881c-.792-.226-1.018-.792-.792-1.47l.113-.114c.226-.68.792-.905 1.471-.68.679.227 1.811.793 2.603 1.359-.226-.905-.453-2.263-.453-3.056 0-.678.453-1.244 1.132-1.244h.113c.679 0 1.132.452 1.132 1.244 0 .793-.227 2.037-.453 3.056.905-.566 1.924-1.132 2.603-1.358.679-.226 1.245 0 1.471.679v.113c.226.68 0 1.245-.792 1.471-.679.227-1.924.453-2.942.453.792.566 1.697 1.471 2.15 2.037.452.566.339 1.245-.227 1.584l-.113.113c-.566.453-1.131.34-1.584-.34-.453-.565-.905-1.584-1.358-2.715-.453 1.018-.905 2.037-1.358 2.716-.453.566-1.018.792-1.584.34l-.113-.114c-.566-.453-.566-1.018-.227-1.584.453-.566 1.358-1.471 2.15-2.037-1.018-.113-2.263-.226-2.942-.453zM219.067 41.881c-.792-.226-1.019-.792-.792-1.47l.113-.114c.226-.68.792-.905 1.471-.68.679.227 1.811.793 2.603 1.359-.227-.905-.453-2.263-.453-3.056 0-.678.453-1.244 1.132-1.244h.113c.679 0 1.131.452 1.131 1.244 0 .793-.226 2.037-.452 3.056.905-.566 1.924-1.132 2.603-1.358.679-.226 1.244 0 1.471.679v.113c.226.68 0 1.245-.792 1.471-.679.227-1.924.453-2.943.453.792.566 1.698 1.471 2.15 2.037.453.566.34 1.245-.226 1.584l-.113.113c-.566.453-1.132.34-1.584-.34-.453-.565-.906-1.584-1.358-2.715-.453 1.018-.906 2.037-1.358 2.716-.453.566-1.019.792-1.585.34l-.113-.114c-.566-.453-.566-1.018-.226-1.584.453-.566 1.358-1.471 2.15-2.037-1.018-.113-2.263-.226-2.942-.453zM230.496 41.881c-.792-.226-1.018-.792-.792-1.47l.113-.114c.227-.68.793-.905 1.472-.68.679.227 1.81.793 2.602 1.359-.226-.905-.452-2.263-.452-3.056 0-.678.452-1.244 1.131-1.244h.114c.679 0 1.131.452 1.131 1.244 0 .793-.226 2.037-.452 3.056.905-.566 1.923-1.132 2.602-1.358.679-.226 1.245 0 1.471.679v.113c.227.68 0 1.245-.792 1.471-.679.227-1.924.453-2.942.453.792.566 1.697 1.471 2.15 2.037.453.566.34 1.245-.226 1.584l-.113.113c-.566.453-1.132.34-1.585-.34-.452-.565-.905-1.584-1.358-2.715-.452 1.018-.905 2.037-1.358 2.716-.452.566-1.018.792-1.584.34l-.113-.114c-.566-.453-.566-1.018-.226-1.584.452-.566 1.358-1.471 2.15-2.037-.906-.113-2.15-.226-2.943-.453zM242.039 41.881c-.792-.226-1.018-.792-.792-1.47l.113-.114c.227-.68.793-.905 1.472-.68.679.227 1.81.793 2.602 1.359-.226-.905-.452-2.263-.452-3.056 0-.678.452-1.244 1.131-1.244h.113c.679 0 1.132.452 1.132 1.244 0 .793-.226 2.037-.453 3.056.906-.566 1.924-1.132 2.603-1.358.679-.226 1.245 0 1.471.679v.113c.227.68 0 1.245-.792 1.471-.679.227-1.924.453-2.942.453.792.566 1.697 1.471 2.15 2.037.453.566.34 1.245-.226 1.584l-.113.113c-.566.453-1.132.34-1.585-.34-.452-.565-.905-1.584-1.358-2.715-.452 1.018-.905 2.037-1.358 2.716-.452.566-1.018.792-1.584.34l-.113-.114c-.566-.453-.566-1.018-.226-1.584.452-.566 1.358-1.471 2.15-2.037-1.019-.113-2.264-.226-2.943-.453zM253.469 41.881c-.792-.226-1.018-.792-.792-1.47l.113-.114c.226-.68.792-.905 1.471-.68.679.227 1.811.793 2.603 1.359-.226-.905-.453-2.263-.453-3.056 0-.678.453-1.244 1.132-1.244h.113c.679 0 1.132.452 1.132 1.244 0 .793-.226 2.037-.453 3.056.905-.566 1.924-1.132 2.603-1.358.679-.226 1.245 0 1.471.679v.113c.226.68 0 1.245-.792 1.471-.679.227-1.924.453-2.942.453.792.566 1.697 1.471 2.15 2.037.452.566.339 1.245-.227 1.584l-.113.113c-.566.453-1.131.34-1.584-.34-.453-.565-.905-1.584-1.358-2.715-.453 1.018-.905 2.037-1.358 2.716-.453.566-1.018.792-1.584.34l-.113-.114c-.566-.453-.566-1.018-.227-1.584.453-.566 1.358-1.471 2.15-2.037-1.018-.113-2.15-.226-2.942-.453zM265.012 41.881c-.792-.226-1.018-.792-.792-1.47l.113-.114c.226-.68.792-.905 1.471-.68.679.227 1.811.793 2.603 1.359-.226-.905-.453-2.263-.453-3.056 0-.678.453-1.244 1.132-1.244h.113c.679 0 1.132.452 1.132 1.244 0 .793-.227 2.037-.453 3.056.905-.566 1.924-1.132 2.603-1.358.679-.226 1.245 0 1.471.679v.113c.226.68 0 1.245-.792 1.471-.679.227-1.924.453-2.942.453.792.566 1.697 1.471 2.15 2.037.452.566.339 1.245-.227 1.584l-.113.113c-.566.453-1.131.34-1.584-.34-.453-.565-.905-1.584-1.358-2.715-.453 1.018-.905 2.037-1.358 2.716-.453.566-1.018.792-1.584.34l-.113-.114c-.566-.453-.566-1.018-.227-1.584.453-.566 1.358-1.471 2.15-2.037-1.018-.113-2.263-.226-2.942-.453z"/>
    </g>
    <g opacity=".2" fill="#000">
        <path opacity=".2" d="M280.743 400.162c-.793-.227-1.019-.792-.793-1.471l.114-.114c.226-.679.792-.905 1.471-.679.679.227 1.81.793 2.602 1.358-.226-.905-.452-2.263-.452-3.055 0-.679.452-1.245 1.131-1.245h.114c.679 0 1.131.453 1.131 1.245s-.226 2.037-.452 3.055c.905-.565 1.923-1.131 2.602-1.358.679-.226 1.245 0 1.472.679v.114c.226.679 0 1.244-.793 1.471-.679.226-1.923.452-2.942.452.792.566 1.698 1.471 2.15 2.037.453.566.34 1.245-.226 1.585l-.113.113c-.566.452-1.132.339-1.585-.34-.452-.566-.905-1.584-1.358-2.716-.452 1.019-.905 2.037-1.358 2.716-.452.566-1.018.792-1.584.34l-.113-.113c-.566-.453-.566-1.019-.226-1.585.452-.566 1.358-1.471 2.15-2.037-1.019-.113-2.263-.226-2.942-.452zM292.172 400.161c-.792-.226-1.018-.792-.792-1.471l.113-.113c.227-.679.792-.905 1.471-.679.679.226 1.811.792 2.603 1.358-.226-.905-.453-2.263-.453-3.055 0-.679.453-1.245 1.132-1.245h.113c.679 0 1.132.452 1.132 1.245 0 .792-.226 2.036-.453 3.055.906-.566 1.924-1.132 2.603-1.358.679-.226 1.245 0 1.471.679v.113c.227.679 0 1.245-.792 1.471-.679.227-1.924.453-2.942.453.792.566 1.697 1.471 2.15 2.037.453.566.339 1.245-.226 1.584l-.114.113c-.565.453-1.131.34-1.584-.339-.453-.566-.905-1.584-1.358-2.716-.453 1.018-.905 2.037-1.358 2.716-.452.566-1.018.792-1.584.339l-.113-.113c-.566-.452-.566-1.018-.227-1.584.453-.566 1.358-1.471 2.15-2.037-1.018-.113-2.263-.226-2.942-.453zM303.602 400.161c-.792-.226-1.019-.792-.792-1.471l.113-.113c.226-.679.792-.905 1.471-.679.679.226 1.811.792 2.603 1.358-.226-.905-.453-2.263-.453-3.055 0-.679.453-1.245 1.132-1.245h.113c.679 0 1.132.452 1.132 1.245 0 .792-.227 2.036-.453 3.055.905-.566 1.924-1.132 2.603-1.358.679-.226 1.245 0 1.471.679v.113c.226.679 0 1.245-.792 1.471-.679.227-1.924.453-2.943.453.793.566 1.698 1.471 2.151 2.037.452.566.339 1.245-.227 1.584l-.113.113c-.566.453-1.132.34-1.584-.339-.453-.566-.906-1.584-1.358-2.716-.453 1.018-.906 2.037-1.358 2.716-.453.566-1.019.792-1.584.339l-.114-.113c-.565-.452-.565-1.018-.226-1.584.453-.566 1.358-1.471 2.15-2.037-.905-.113-2.15-.226-2.942-.453zM315.145 400.161c-.792-.226-1.019-.792-.792-1.471l.113-.113c.226-.679.792-.905 1.471-.679.679.226 1.811.792 2.603 1.358-.227-.905-.453-2.263-.453-3.055 0-.679.453-1.245 1.132-1.245h.113c.679 0 1.132.452 1.132 1.245 0 .792-.227 2.036-.453 3.055.905-.566 1.924-1.132 2.603-1.358.679-.226 1.245 0 1.471.679v.113c.226.679 0 1.245-.792 1.471-.679.227-1.924.453-2.943.453.793.566 1.698 1.471 2.151 2.037.452.566.339 1.245-.227 1.584l-.113.113c-.566.453-1.132.34-1.584-.339-.453-.566-.906-1.584-1.358-2.716-.453 1.018-.906 2.037-1.358 2.716-.453.566-1.019.792-1.584.339l-.114-.113c-.565-.452-.565-1.018-.226-1.584.453-.566 1.358-1.471 2.15-2.037-1.018-.113-2.263-.226-2.942-.453zM326.575 400.161c-.793-.226-1.019-.792-.793-1.471l.114-.113c.226-.679.792-.905 1.471-.679.679.226 1.81.792 2.603 1.358-.227-.905-.453-2.263-.453-3.055 0-.679.452-1.245 1.131-1.245h.114c.679 0 1.131.452 1.131 1.245 0 .792-.226 2.036-.452 3.055.905-.566 1.923-1.132 2.602-1.358.679-.226 1.245 0 1.472.679v.113c.226.679 0 1.245-.793 1.471-.679.227-1.923.453-2.942.453.792.566 1.698 1.471 2.15 2.037.453.566.34 1.245-.226 1.584l-.113.113c-.566.453-1.132.34-1.585-.339-.452-.566-.905-1.584-1.358-2.716-.452 1.018-.905 2.037-1.357 2.716-.453.566-1.019.792-1.585.339l-.113-.113c-.566-.452-.566-1.018-.226-1.584.452-.566 1.358-1.471 2.15-2.037-1.019-.113-2.15-.226-2.942-.453zM338.118 400.161c-.793-.226-1.019-.792-.793-1.471l.114-.113c.226-.679.792-.905 1.471-.679.679.226 1.81.792 2.602 1.358-.226-.905-.452-2.263-.452-3.055 0-.679.452-1.245 1.131-1.245h.114c.679 0 1.131.452 1.131 1.245 0 .792-.226 2.036-.452 3.055.905-.566 1.923-1.132 2.602-1.358.679-.226 1.245 0 1.472.679v.113c.226.679 0 1.245-.793 1.471-.679.227-1.923.453-2.942.453.792.566 1.698 1.471 2.15 2.037.453.566.34 1.245-.226 1.584l-.113.113c-.566.453-1.132.34-1.585-.339-.452-.566-.905-1.584-1.358-2.716-.452 1.018-.905 2.037-1.358 2.716-.452.566-1.018.792-1.584.339l-.113-.113c-.566-.452-.566-1.018-.226-1.584.452-.566 1.358-1.471 2.15-2.037-1.019-.113-2.264-.226-2.942-.453zM349.547 400.161c-.792-.226-1.018-.792-.792-1.471l.113-.113c.227-.679.792-.905 1.471-.679.679.226 1.811.792 2.603 1.358-.226-.905-.452-2.263-.452-3.055 0-.679.452-1.245 1.131-1.245h.113c.679 0 1.132.452 1.132 1.245 0 .792-.226 2.036-.453 3.055.906-.566 1.924-1.132 2.603-1.358.679-.226 1.245 0 1.471.679v.113c.227.679 0 1.245-.792 1.471-.679.227-1.924.453-2.942.453.792.566 1.697 1.471 2.15 2.037.453.566.339 1.245-.226 1.584l-.114.113c-.565.453-1.131.34-1.584-.339-.453-.566-.905-1.584-1.358-2.716-.452 1.018-.905 2.037-1.358 2.716-.452.566-1.018.792-1.584.339l-.113-.113c-.566-.452-.566-1.018-.227-1.584.453-.566 1.358-1.471 2.151-2.037-1.019-.113-2.264-.226-2.943-.453zM360.977 400.161c-.792-.226-1.019-.792-.792-1.471l.113-.113c.226-.679.792-.905 1.471-.679.679.226 1.811.792 2.603 1.358-.226-.905-.453-2.263-.453-3.055 0-.679.453-1.245 1.132-1.245h.113c.679 0 1.132.452 1.132 1.245 0 .792-.227 2.036-.453 3.055.905-.566 1.924-1.132 2.603-1.358.679-.226 1.245 0 1.471.679v.113c.226.679 0 1.245-.792 1.471-.679.227-1.924.453-2.942.453.792.566 1.697 1.471 2.15 2.037.452.566.339 1.245-.227 1.584l-.113.113c-.566.453-1.132.34-1.584-.339-.453-.566-.905-1.584-1.358-2.716-.453 1.018-.905 2.037-1.358 2.716-.453.566-1.019.792-1.584.339l-.114-.113c-.565-.452-.565-1.018-.226-1.584.453-.566 1.358-1.471 2.15-2.037-.905-.113-2.15-.226-2.942-.453z"/>
    </g>
    <g opacity=".2">
        <path opacity=".2" d="M463.73 344.484v-8.034c0-4.98 4.074-9.054 9.167-9.054 5.092 0 9.166 4.074 9.166 9.054v8.034h3.621v-8.034c0-6.903-5.771-12.562-12.9-12.562-7.13 0-12.901 5.659-12.901 12.562v8.034h3.847zM486.815 344.484H458.75v23.199h28.065v-23.199z" stroke="#000" stroke-miterlimit="10"/>
        <path opacity=".2" d="M475.724 354.103c0-1.697-1.358-2.942-3.055-2.942-1.698 0-3.056 1.358-3.056 2.942 0 1.132.679 2.15 1.585 2.603l-.566 5.319h3.961l-.566-5.319a2.86 2.86 0 0 0 1.697-2.603z" stroke="#000" stroke-miterlimit="10"/>
    </g>
    <g opacity=".2">
        <path opacity=".2" d="M65.617 91.674v-8.035c0-4.979 4.074-9.053 9.166-9.053 5.093 0 9.167 4.074 9.167 9.053v8.035h3.621v-8.035c0-6.903-5.771-12.561-12.9-12.561-7.13 0-12.902 5.658-12.902 12.561v8.035h3.848zM88.702 91.674H60.637v23.199h28.065V91.674z" stroke="#000" stroke-miterlimit="10"/>
        <path opacity=".2" d="M77.61 101.293c0-1.698-1.357-2.942-3.055-2.942-1.697 0-3.055 1.358-3.055 2.942 0 1.132.679 2.15 1.584 2.603l-.566 5.319h3.961l-.566-5.319a2.86 2.86 0 0 0 1.698-2.603z" stroke="#000" stroke-miterlimit="10"/>
    </g>
    <g opacity=".2">
        <path opacity=".2" d="M416.427 30.791v-5.319c0-3.282 2.716-5.884 5.998-5.884s5.998 2.602 5.998 5.884v5.206h2.376v-5.206c0-4.526-3.734-8.26-8.487-8.26-4.64 0-8.488 3.734-8.488 8.26v5.319h2.603zM431.59 30.791h-18.445v15.277h18.445V30.791z" stroke="#000" stroke-miterlimit="10"/>
        <path opacity=".2" d="M424.234 37.128c0-1.131-.905-1.923-2.037-1.923s-2.037.905-2.037 1.923c0 .792.453 1.358 1.019 1.698l-.34 3.508h2.603l-.34-3.508c.793-.34 1.132-1.019 1.132-1.698z" stroke="#000" stroke-miterlimit="10"/>
    </g>
    <path d="M470.634 77.642H110.43V268.89h360.204V77.641z" fill="#fff" stroke="#263238" stroke-miterlimit="10" stroke-linecap="round" stroke-linejoin="round"/>
    <path d="M470.518 77.642H173.121v17.88h297.397v-17.88z" fill="#D9D9D9" stroke="#263238" stroke-miterlimit="10" stroke-linecap="round" stroke-linejoin="round"/>
    <path d="M470.634 77.642H236.27v17.88h234.364v-17.88z" fill="#A8A8A8" stroke="#263238" stroke-miterlimit="10" stroke-linecap="round" stroke-linejoin="round"/>
    <path d="M470.52 60.101H110.09v17.88h360.43v-17.88z" fill="#263238" stroke="#263238" stroke-miterlimit="10" stroke-linecap="round" stroke-linejoin="round"/>
    <path d="M360.411 72.663H125.934a3.816 3.816 0 0 1-3.848-3.848 3.816 3.816 0 0 1 3.848-3.847h234.364a3.816 3.816 0 0 1 3.848 3.847c.113 2.15-1.698 3.848-3.735 3.848z" fill="#A8A8A8" stroke="#263238" stroke-miterlimit="10" stroke-linecap="round" stroke-linejoin="round"/>
    <path d="M431.137 72.55a3.282 3.282 0 1 0 0-6.564 3.282 3.282 0 0 0 0 6.563zM448.001 69.267a3.284 3.284 0 0 0-3.282-3.281 3.284 3.284 0 0 0-3.281 3.281 3.284 3.284 0 0 0 3.281 3.282 3.284 3.284 0 0 0 3.282-3.282zM458.297 72.55a3.282 3.282 0 1 0 0-6.564 3.282 3.282 0 0 0 0 6.563z" fill="#fff" stroke="#263238" stroke-miterlimit="10" stroke-linecap="round" stroke-linejoin="round"/>
    <path d="M133.629 154.255h40.06v-27.16H150.49l-2.376-6.677h-14.485v33.837zM133.629 206.763h40.06v-27.16H150.49l-2.376-6.676h-14.485v33.836zM133.629 259.272h40.06v-27.16H150.49l-2.376-6.677h-14.485v33.837zM189.305 154.254h40.06v-27.159h-23.312l-2.263-6.677h-14.485v33.836zM189.305 206.763h40.06v-27.16h-23.312l-2.263-6.676h-14.485v33.836zM189.305 259.272h40.06v-27.16h-23.312l-2.263-6.677h-14.485v33.837zM244.984 154.254h39.948v-27.159h-23.199l-2.377-6.677h-14.372v33.836zM244.984 206.763h39.948v-27.16h-23.199l-2.377-6.676h-14.372v33.836zM244.984 259.272h39.948v-27.16h-23.199l-2.377-6.677h-14.372v33.837zM300.547 154.254h40.06v-27.159h-23.199l-2.376-6.677h-14.485v33.836zM300.547 206.763h40.06v-27.16h-23.199l-2.376-6.676h-14.485v33.836zM300.547 259.272h40.06v-27.16h-23.199l-2.376-6.677h-14.485v33.837zM356.223 154.254h40.06v-27.159h-23.312l-2.376-6.677h-14.372v33.836zM356.223 206.763h40.06v-27.16h-23.312l-2.376-6.676h-14.372v33.836zM356.223 259.272h40.06v-27.16h-23.312l-2.376-6.677h-14.372v33.837zM411.902 154.254h39.948v-27.159h-23.199l-2.377-6.677h-14.372v33.836zM411.902 206.763h39.948v-27.16h-23.199l-2.377-6.676h-14.372v33.836zM411.902 259.272h39.948v-27.16h-23.199l-2.377-6.677h-14.372v33.837z" fill="#D9D9D9" stroke="#B5B5B5" stroke-miterlimit="10"/>
    <path opacity=".3" d="M357.922 115.439H213.637v127.31h144.285v-127.31z" fill="#000"/>
    <path d="M361.543 108.988H217.258v127.311h144.285V108.988z" fill="#fff" stroke="#263238" stroke-miterlimit="10" stroke-linecap="round" stroke-linejoin="round"/>
    <path d="M361.543 108.988H217.258v9.053h144.285v-9.053z" fill="#263238" stroke="#263238" stroke-miterlimit="10" stroke-linecap="round" stroke-linejoin="round"/>
    <path d="M280.293 163.421v-13.467c0-4.979 4.074-9.053 9.166-9.053 5.093 0 9.167 4.074 9.167 9.053v7.808h3.621v-7.808c0-6.903-5.772-12.561-12.901-12.561s-12.901 5.658-12.901 12.561v13.467h3.848z" fill="#fff" stroke="#263238" stroke-miterlimit="10" stroke-linecap="round" stroke-linejoin="round"/>
    <path d="M303.377 162.176h-28.065v23.199h28.065v-23.199z" fill="#F94025" stroke="#263238" stroke-miterlimit="10" stroke-linecap="round" stroke-linejoin="round"/>
    <path d="m307.453 153.575 1.811-4.074M307.68 158.555h6.79M306.887 163.307l3.621 3.848" stroke="#263238" stroke-miterlimit="10" stroke-linecap="round" stroke-linejoin="round"/>
    <path d="M292.287 171.795c0-1.698-1.358-2.943-3.056-2.943-1.697 0-3.055 1.358-3.055 2.943 0 1.131.679 2.15 1.584 2.603l-.566 5.318h3.961l-.566-5.318a2.86 2.86 0 0 0 1.698-2.603z" fill="#263238" stroke="#263238" stroke-miterlimit="10" stroke-linecap="round" stroke-linejoin="round"/>
    <path d="M339.701 214.684H239.097a4.54 4.54 0 0 1-4.527-4.526v-10.751a4.54 4.54 0 0 1 4.527-4.527h100.604a4.54 4.54 0 0 1 4.526 4.527v10.751a4.54 4.54 0 0 1-4.526 4.526z" fill="#fff" stroke="#263238" stroke-miterlimit="10" stroke-linecap="round" stroke-linejoin="round"/>
    <path d="M245.211 205.405c-.792-.227-1.018-.793-.792-1.472l.113-.113c.227-.679.792-.905 1.471-.679.679.227 1.811.792 2.603 1.358-.226-.905-.452-2.263-.452-3.055 0-.679.452-1.245 1.131-1.245h.113c.679 0 1.132.453 1.132 1.245s-.226 2.037-.453 3.055c.906-.566 1.924-1.131 2.603-1.358.679-.226 1.245 0 1.471.679v.113c.227.679 0 1.245-.792 1.472-.679.226-1.924.452-2.942.452.792.566 1.697 1.471 2.15 2.037.453.566.339 1.245-.226 1.585l-.114.113c-.565.452-1.131.339-1.584-.34-.452-.566-.905-1.584-1.358-2.716-.452 1.019-.905 2.037-1.358 2.716-.452.566-1.018.792-1.584.34l-.113-.113c-.566-.453-.566-1.019-.227-1.585.453-.566 1.358-1.471 2.151-2.037-1.019-.113-2.264-.226-2.943-.452zM256.641 205.405c-.792-.227-1.019-.792-.792-1.471l.113-.114c.226-.679.792-.905 1.471-.679.679.227 1.811.793 2.603 1.358-.226-.905-.453-2.263-.453-3.055 0-.679.453-1.245 1.132-1.245h.113c.679 0 1.132.453 1.132 1.245s-.227 2.037-.453 3.055c.905-.565 1.924-1.131 2.603-1.358.679-.226 1.245 0 1.471.679v.114c.226.679 0 1.244-.792 1.471-.679.226-1.924.452-2.942.452.792.566 1.697 1.471 2.15 2.037.452.566.339 1.245-.227 1.585l-.113.113c-.566.452-1.131.339-1.584-.34-.453-.566-.905-1.584-1.358-2.716-.453 1.019-.905 2.037-1.358 2.716-.453.566-1.019.792-1.584.34l-.114-.113c-.565-.453-.565-1.019-.226-1.585.453-.566 1.358-1.471 2.15-2.037-1.018-.113-2.263-.226-2.942-.452zM268.071 205.405c-.793-.227-1.019-.792-.793-1.471l.114-.114c.226-.679.792-.905 1.471-.679.679.227 1.81.793 2.603 1.358-.227-.905-.453-2.263-.453-3.055 0-.679.453-1.245 1.132-1.245h.113c.679 0 1.131.453 1.131 1.245s-.226 2.037-.452 3.055c.905-.565 1.924-1.131 2.603-1.358.679-.226 1.244 0 1.471.679v.114c.226.679 0 1.244-.792 1.471-.679.226-1.924.452-2.943.452.792.566 1.698 1.471 2.15 2.037.453.566.34 1.245-.226 1.585l-.113.113c-.566.452-1.132.339-1.584-.34-.453-.566-.906-1.584-1.358-2.716-.453 1.019-.906 2.037-1.358 2.716-.453.566-1.019.792-1.585.34l-.113-.113c-.566-.453-.566-1.019-.226-1.585.452-.566 1.358-1.471 2.15-2.037-.905-.113-2.15-.226-2.942-.452zM279.614 205.405c-.793-.227-1.019-.792-.793-1.471l.114-.114c.226-.679.792-.905 1.471-.679.679.227 1.81.793 2.603 1.358-.227-.905-.453-2.263-.453-3.055 0-.679.453-1.245 1.132-1.245h.113c.679 0 1.131.453 1.131 1.245s-.226 2.037-.452 3.055c.905-.565 1.923-1.131 2.602-1.358.679-.226 1.245 0 1.472.679v.114c.226.679 0 1.244-.793 1.471-.679.226-1.923.452-2.942.452.792.566 1.698 1.471 2.15 2.037.453.566.34 1.245-.226 1.585l-.113.113c-.566.452-1.132.339-1.584-.34-.453-.566-.906-1.584-1.358-2.716-.453 1.019-.906 2.037-1.358 2.716-.453.566-1.019.792-1.585.34l-.113-.113c-.566-.453-.566-1.019-.226-1.585.452-.566 1.358-1.471 2.15-2.037-1.019-.113-2.263-.226-2.942-.452zM291.043 205.405c-.792-.227-1.018-.792-.792-1.471l.113-.114c.227-.679.792-.905 1.471-.679.679.227 1.811.793 2.603 1.358-.226-.905-.452-2.263-.452-3.055 0-.679.452-1.245 1.131-1.245h.113c.679 0 1.132.453 1.132 1.245s-.226 2.037-.453 3.055c.906-.565 1.924-1.131 2.603-1.358.679-.226 1.245 0 1.471.679v.114c.227.679 0 1.244-.792 1.471-.679.226-1.924.452-2.942.452.792.566 1.697 1.471 2.15 2.037.453.566.34 1.245-.226 1.585l-.113.113c-.566.452-1.132.339-1.585-.34-.452-.566-.905-1.584-1.358-2.716-.452 1.019-.905 2.037-1.358 2.716-.452.566-1.018.792-1.584.34l-.113-.113c-.566-.453-.566-1.019-.227-1.585.453-.566 1.358-1.471 2.151-2.037-1.019-.113-2.264-.226-2.943-.452zM302.586 205.405c-.792-.227-1.018-.792-.792-1.471l.113-.114c.227-.679.792-.905 1.471-.679.679.227 1.811.793 2.603 1.358-.226-.905-.452-2.263-.452-3.055 0-.679.452-1.245 1.131-1.245h.113c.679 0 1.132.453 1.132 1.245s-.226 2.037-.453 3.055c.906-.565 1.924-1.131 2.603-1.358.679-.226 1.245 0 1.471.679v.114c.227.679 0 1.244-.792 1.471-.679.226-1.924.452-2.942.452.792.566 1.697 1.471 2.15 2.037.453.566.339 1.245-.226 1.585l-.113.113c-.566.452-1.132.339-1.585-.34-.452-.566-.905-1.584-1.358-2.716-.452 1.019-.905 2.037-1.358 2.716-.452.566-1.018.792-1.584.34l-.113-.113c-.566-.453-.566-1.019-.227-1.585.453-.566 1.358-1.471 2.151-2.037-1.019-.113-2.264-.226-2.943-.452zM314.016 205.405c-.792-.227-1.019-.792-.792-1.471l.113-.114c.226-.679.792-.905 1.471-.679.679.227 1.811.793 2.603 1.358-.226-.905-.453-2.263-.453-3.055 0-.679.453-1.245 1.132-1.245h.113c.679 0 1.132.453 1.132 1.245s-.227 2.037-.453 3.055c.905-.565 1.924-1.131 2.603-1.358.679-.226 1.245 0 1.471.679v.114c.226.679 0 1.244-.792 1.471-.679.226-1.924.452-2.942.452.792.566 1.697 1.471 2.15 2.037.452.566.339 1.245-.227 1.585l-.113.113c-.566.452-1.131.339-1.584-.34-.453-.566-.905-1.584-1.358-2.716-.453 1.019-.905 2.037-1.358 2.716-.453.566-1.019.792-1.584.34l-.114-.113c-.565-.453-.565-1.019-.226-1.585.453-.566 1.358-1.471 2.15-2.037-1.018-.113-2.263-.226-2.942-.452zM325.446 205.405c-.792-.227-1.019-.792-.793-1.471l.114-.114c.226-.679.792-.905 1.471-.679.679.227 1.81.793 2.603 1.358-.227-.905-.453-2.263-.453-3.055 0-.679.453-1.245 1.132-1.245h.113c.679 0 1.131.453 1.131 1.245s-.226 2.037-.452 3.055c.905-.565 1.924-1.131 2.603-1.358.679-.226 1.244 0 1.471.679v.114c.226.679 0 1.244-.792 1.471-.679.226-1.924.452-2.943.452.792.566 1.698 1.471 2.15 2.037.453.566.34 1.245-.226 1.585l-.113.113c-.566.452-1.132.339-1.584-.34-.453-.566-.906-1.584-1.358-2.716-.453 1.019-.906 2.037-1.358 2.716-.453.566-1.019.792-1.585.34l-.113-.113c-.566-.453-.566-1.019-.226-1.585.452-.566 1.358-1.471 2.15-2.037-.905-.113-2.15-.226-2.942-.452z" fill="#263238"/>
    <path d="M145.625 493.976h3.96c.566 0 1.019-.453 1.019-.906l3.055-32.252h-12.108l3.055 32.252c.113.453.566.906 1.019.906zM107.941 493.976h3.961c.566 0 1.018-.453 1.018-.906l3.056-32.252h-12.109l3.056 32.252c.113.453.452.906 1.018.906zM169.386 493.976h3.961c.566 0 1.019-.453 1.019-.906l3.055-32.252h-12.109l3.056 32.252c.113.453.566.906 1.018.906zM208.656 493.976h3.961c.566 0 1.018-.453 1.018-.906l3.056-32.252h-12.109l3.055 32.252c.114.453.453.906 1.019.906z" fill="#fff" stroke="#263238" stroke-miterlimit="10" stroke-linecap="round" stroke-linejoin="round"/>
    <path d="M151.621 462.063h77.518s7.922-26.48 14.146-52.056c6.224-25.575 13.24-57.714 5.771-64.277-7.469-6.564-27.272 4.866-42.323 7.921-15.051 3.056-18.107-.452-28.178-10.977-10.185-10.524-18.899-27.725-36.1-38.815-17.201-10.977-29.989-12.788-41.871-5.319 0 0-11.882 10.185-12.788 27.273-.905 17.201 3.961 38.815 10.185 50.698 5.998 11.882 53.64 85.552 53.64 85.552z" fill="#fff" stroke="#263238" stroke-miterlimit="10" stroke-linecap="round" stroke-linejoin="round"/>
    <path d="M140.645 413.629h83.742s15.051-15.051 17.314-51.264" stroke="#263238" stroke-miterlimit="10" stroke-linecap="round" stroke-linejoin="round"/>
    <path d="m199.263 267.08-9.506 5.771s6.564 36.1 4.979 55.111c-1.584 19.012-9.506 37.119-9.506 37.119h25.576s9.506-22.633 13.693-38.477c4.187-15.843-3.169-52.961-3.169-52.961l-22.067-6.563z" fill="#757575" stroke="#263238" stroke-miterlimit="10" stroke-linecap="round" stroke-linejoin="round"/>
    <path d="M304.395 363.27s5.431-1.698 6.903-1.698c1.471 0 6.224 3.735 6.224 3.735s.226 1.358-.906 1.697c-1.018.34-4.753-2.263-4.753-2.263l-6.111 1.811-1.357-3.282z" fill="#D9D9D9" stroke="#263238" stroke-miterlimit="10" stroke-linecap="round" stroke-linejoin="round"/>
    <path d="M304.961 359.875s5.658.905 6.903 1.471c1.358.679 3.961 6.111 3.961 6.111s-.453 1.358-1.472 1.132c-1.131-.227-3.281-4.074-3.281-4.074l-6.338-1.132.227-3.508z" fill="#D9D9D9" stroke="#263238" stroke-miterlimit="10" stroke-linecap="round" stroke-linejoin="round"/>
    <path d="m298.963 358.177 7.129 1.698 4.527 3.055 2.603 6.338s-.906.905-1.924.679c-1.132-.227-5.659-5.206-5.659-5.206l-6.563-4.074-2.15-2.376h2.037v-.114z" fill="#D9D9D9" stroke="#263238" stroke-miterlimit="10" stroke-linecap="round" stroke-linejoin="round"/>
    <path d="M283.347 356.141s11.09.452 13.467.452c2.376 0 8.713 4.979 9.732 5.432 1.131.453 5.658 6.903 5.658 6.903s.226 0-1.358.453c-1.471.452-3.961-1.132-3.961-1.132l-3.055-3.734-7.356-1.358s5.432 2.829 6.79 3.282c1.358.452 2.15 1.923 1.697 2.829-.452.905-7.016-1.924-7.016-1.924s-2.489 1.358-5.092 0c-2.603-1.358-2.943-1.358-5.772-2.603-2.716-1.245-8.261-4.527-8.261-4.527l4.527-4.073z" fill="#D9D9D9" stroke="#263238" stroke-miterlimit="10" stroke-linecap="round" stroke-linejoin="round"/>
    <path d="M226.877 278.736s4.187.792 5.319 3.168c1.018 2.377 7.921 56.13 7.921 56.13l45.266 16.522-.905 15.843s-53.64-6.563-57.261-5.771c-3.735.792-12.675 1.81-16.296-1.019-3.735-2.942 10.298-15.051 12.901-26.141 5.997-26.367 5.318-44.474 5.318-44.474s-7.582-17.427-2.263-14.258z" fill="#FF7E6B" stroke="#263238" stroke-miterlimit="10" stroke-linecap="round" stroke-linejoin="round"/>
    <path d="M232.647 309.517s-6.564 26.367-9.506 33.496c-2.943 7.13-8.714 19.012-8.714 19.012l-6.337 1.019s13.127-28.405 15.503-39.721c2.377-11.317-2.942-40.061-3.168-41.079-.227-1.019 1.81-7.695 5.771-6.337" fill="#FF7E6B"/>
    <path d="M232.647 309.517s-6.564 26.367-9.506 33.496c-2.943 7.13-8.714 19.012-8.714 19.012l-6.337 1.019s13.127-28.405 15.503-39.721c2.377-11.317-2.942-40.061-3.168-41.079-.227-1.019 1.81-7.695 5.771-6.337" stroke="#263238" stroke-miterlimit="10" stroke-linecap="round" stroke-linejoin="round"/>
    <path d="m220.878 302.161-7.695 19.238-8.148-20.596 9.732-7.582 6.111 8.94z" fill="#fff" stroke="#263238" stroke-miterlimit="10" stroke-linecap="round" stroke-linejoin="round"/>
    <path d="m222.689 286.657 2.83 22.407-12.335-9.506 9.505-12.901z" fill="#fff" stroke="#263238" stroke-miterlimit="10" stroke-linecap="round" stroke-linejoin="round"/>
    <path d="M257.207 246.823s-.226 14.825-1.471 16.975c-1.245 2.037-3.735 5.205-3.848 8.034-.113 2.83 3.282 8.94 1.245 10.977-2.037 1.924-4.866 1.019-4.866 1.019s-6.677 7.921-10.298 9.732c-3.735 1.811-13.58-3.395-13.58-3.395l-9.845 10.185-18.22-32.931 10.411-7.016s3.961-20.709 16.862-25.01c12.901-4.413 31.573 6.224 33.61 11.43z" fill="#D9D9D9" stroke="#263238" stroke-miterlimit="10" stroke-linecap="round" stroke-linejoin="round"/>
    <path d="M220.882 265.495s-3.961 8.261-.566 13.58" stroke="#263238" stroke-miterlimit="10" stroke-linecap="round" stroke-linejoin="round"/>
    <path d="M246.343 267.985c-.452 1.131-.452 2.263 0 2.489.566.227 1.358-.452 1.924-1.584.453-1.132.453-2.263 0-2.49-.679-.226-1.471.453-1.924 1.585z" fill="#263238"/>
    <path d="M243.851 284.394s-3.96-.793-3.96-3.961M243.629 269.003l2.942 2.716M251.661 263.685s-.113-3.961-6.45-2.264" stroke="#263238" stroke-miterlimit="10" stroke-linecap="round" stroke-linejoin="round"/>
    <path d="M265.806 235.62c-2.829.339-5.545 2.489-6.45.565-.906-1.81-.34-8.6-4.98-9.279-4.639-.566-4.3 1.584-5.884 1.811-1.585.339-3.395-6.79-9.28-5.885-5.884.905-9.506 3.395-9.845 4.64-10.072-.113-16.296 4.074-20.822 12.335-4.867 9.053-1.924 20.483-1.924 20.483s-4.64 3.621-.906 4.639c3.735 1.019 15.051.453 15.051.453l-1.244-.566c-1.245-.566-3.169-4.526.792-10.298 3.96-5.771 6.676-.792 7.016 1.698.339 2.489.566 4.526 2.037 5.205 1.471.679 2.49-.905 2.829-3.055.339-2.15 4.753-2.264 7.922-3.622 3.281-1.471.113-4.3-2.49-8.6-2.716-4.413 4.074-5.319 10.411-1.471 3.621 2.263 5.545 3.508 7.356 3.734h.113s3.055 2.49 5.545.34c2.49-2.15 3.961-2.49 6.224-4.98 2.263-2.263 1.358-8.374-1.471-8.147z" fill="#263238" stroke="#263238" stroke-miterlimit="10" stroke-linecap="round" stroke-linejoin="round"/>
    <path d="m197.341 265.608 17.428 33.724-11.09 11.542s-9.506-25.575-10.525-31.912c-1.018-6.337-1.81-10.751-1.81-10.751l5.997-2.603z" fill="#fff" stroke="#263238" stroke-miterlimit="10" stroke-linecap="round" stroke-linejoin="round"/>
    <path d="M207.412 360.78s50.924-2.602 57.374 0c6.451 2.603 7.922 9.393 7.13 16.183-.793 6.79-4.527 46.737-5.998 58.054-1.471 11.316-2.263 25.235-1.132 27.951 1.132 2.603 4.527 7.13 3.395 9.846-1.131 2.602-3.055 3.734-3.055 4.866 0 1.131 1.471 3.055 1.471 3.055s13.919 5.998 18.898 7.922c4.866 1.924 5.319 3.395 4.188 4.187-1.132.792-24.557 0-28.631 0-4.187 0-12.109-2.603-12.109-2.603v1.924h-10.185v-7.13c0-3.734.34-6.789.34-6.789s-1.924-4.867-1.471-6.79c.339-1.924 2.602-5.998 3.395-9.846.792-3.734 0-9.053-.34-13.24-.339-4.187 0-6.79.34-9.053.339-2.263-2.264-43.342-2.264-43.342s-29.762 9.053-32.818 9.392c-3.055.34-27.499 9.393-37.683 6.79-10.185-2.603 4.187-34.741 15.503-45.605 11.203-11.09 23.652-5.772 23.652-5.772z" fill="#263238" stroke="#263238" stroke-miterlimit="10" stroke-linecap="round" stroke-linejoin="round"/>
    <path d="M186.702 357.046s33.61 2.603 37.344 6.45c3.735 3.735 2.603 11.317 2.603 16.183s-4.527 70.162-4.866 73.897c-.34 3.734 3.734 7.582 2.263 10.185-1.471 2.602-2.263 5.658-2.263 6.789 0 1.132 10.185 9.393 14.372 11.656 4.187 2.264 15.843 4.867 17.767 6.79 1.924 1.924 1.471 3.395-1.924 4.527-3.395 1.132-31.686 0-31.686 0s-4.187 0-5.658-1.132c-1.472-1.131-2.603-1.471-2.603-1.471l-.34 2.49H197s-1.471-8.601-1.471-12.335c0-3.735 1.131-9.393 1.131-9.393s-2.263-3.395-1.923-6.79c.339-3.395 3.055-4.866 3.055-7.129s-2.263-9.053-1.924-13.241c.34-4.187.792-9.053.792-9.053l-3.395-33.157s-22.633 12.448-33.61 11.316c-10.977-1.131-13.919-2.602-16.974-7.921-3.056-5.319-3.056-27.499 1.923-36.213 4.753-8.714 31.913-16.635 42.098-12.448z" fill="#263238" stroke="#263238" stroke-miterlimit="10" stroke-linecap="round" stroke-linejoin="round"/>
    <path d="M191.343 268.211s7.922 19.804 8.714 31.573c.792 11.883-.227 39.495-3.169 47.416-2.942 7.922-4.187 12.901-4.187 12.901s-26.367 3.961-29.762 5.319c-3.395 1.358-10.525 11.543-11.883 20.256-.339 2.49-.679 5.206-.792 7.809-.452 5.884.113 11.769 1.358 17.654.227 1.131.227 2.036-.113 2.263-1.018 1.018-15.164-5.319-19.917-21.615-4.753-16.295-2.376-35.533 1.811-44.473 4.187-8.941 20.596-62.468 27.612-69.597 7.129-7.129 30.328-9.506 30.328-9.506z" fill="#FF7E6B" stroke="#263238" stroke-miterlimit="10" stroke-linecap="round" stroke-linejoin="round"/>
    <path d="M280.402 363.043s9.959 1.245 12.562 1.924c2.602.679 4.3 2.943 4.3 2.943l-1.019.905-7.242-2.716-8.601-3.056z" fill="#D9D9D9" stroke="#263238" stroke-miterlimit="10" stroke-linecap="round" stroke-linejoin="round"/>
    <path d="M284.477 364.628s6.11.339 6.789 1.132c.679.792 3.961 6.224 3.961 6.224l-1.471 1.018-4.074-3.847-5.205-2.83v-1.697 0z" fill="#D9D9D9" stroke="#263238" stroke-miterlimit="10" stroke-linecap="round" stroke-linejoin="round"/>
    <path d="M273.389 362.478s11.316.905 13.58 2.263c2.263 1.245 5.092 7.016 5.092 7.016l-1.584.679-5.432-5.432-13.467-2.263 1.811-2.263z" fill="#D9D9D9" stroke="#263238" stroke-miterlimit="10" stroke-linecap="round" stroke-linejoin="round"/>
    <path d="M272.82 368.136s3.056 1.584 4.753 1.584c1.585 0 6.677-1.697 6.677-1.697s-5.092-2.15-6.111-2.264c-.905-.113-5.319 2.377-5.319 2.377z" fill="#D9D9D9" stroke="#263238" stroke-miterlimit="10" stroke-linecap="round" stroke-linejoin="round"/>
    <path d="M259.583 357.272s13.466 3.169 15.05 4.187c1.585 1.019 9.28 4.866 10.298 5.432 1.019.679 3.848 5.772 3.848 5.772s-1.924 2.263-2.603.679c-.679-1.585-3.508-4.527-3.508-4.527l-5.771-1.924s-3.169 1.585-6.79 1.585c-3.508 0-7.356-3.509-7.356-3.509l-6.45 1.585 3.282-9.28z" fill="#D9D9D9" stroke="#263238" stroke-miterlimit="10" stroke-linecap="round" stroke-linejoin="round"/>
    <path d="M179.8 282.018s8.034 7.016 8.713 14.824c.679 7.922.566 11.09.679 12.335.114 1.358 4.753 35.873 4.753 35.873l67.22 10.864-1.244 14.938-76.613-1.471s-5.206 1.018-8.035-2.716c-2.829-3.848-19.238-61.675-19.238-61.675" fill="#FF7E6B"/>
    <path d="M179.8 282.018s8.034 7.016 8.713 14.824c.679 7.922.566 11.09.679 12.335.114 1.358 4.753 35.873 4.753 35.873l67.22 10.864-1.244 14.938-76.613-1.471s-5.206 1.018-8.035-2.716c-2.829-3.848-19.238-61.675-19.238-61.675" stroke="#263238" stroke-miterlimit="10" stroke-linecap="round" stroke-linejoin="round"/>
    <path d="M180.592 350.482c-.679.566-1.358 1.358-2.037 2.15M192.814 346.408s-4.979-.226-9.505 2.264M188.176 349.238s-6.451 2.15-7.809 6.676" stroke="#263238" stroke-miterlimit="10" stroke-linecap="round" stroke-linejoin="round"/>
    <path d="M151.621 462.063s-1.358-47.19-13.241-78.084c-11.882-30.894-18.898-34.855-23.764-33.497-4.866 1.358-11.882 9.732-16.296 3.961-4.413-5.771-10.977-21.614-8.374-35.647 2.603-14.145 7.921-16.748 10.524-20.256 2.603-3.509-11.43 4.866-17.653 14.145-6.225 9.28-6.225 31.686-2.603 55.112 3.508 23.311 12.335 89.513 15.39 92.116 3.056 2.603 10.524 2.603 10.524 2.603h40.514l4.979-.453zM371.39 369.494H267.844v4.526H371.39v-4.526z" fill="#fff" stroke="#263238" stroke-miterlimit="10" stroke-linecap="round" stroke-linejoin="round"/>
    <path d="M371.39 369.494h-50.132v4.526h50.132v-4.526z" fill="#B2B2B2" stroke="#263238" stroke-miterlimit="10" stroke-linecap="round" stroke-linejoin="round"/>
    <path d="M385.875 329.094H335.63l-14.372 40.4h50.132l14.485-40.4z" fill="#D9D9D9" stroke="#263238" stroke-miterlimit="10" stroke-linecap="round" stroke-linejoin="round"/>
    <path d="M333.255 494.089h.679c1.584 0 2.942-1.358 2.942-2.942V376.85h-6.564v114.297c0 1.584 1.245 2.942 2.943 2.942zM345.138 494.089h.679c1.584 0 2.942-1.358 2.942-2.942V376.85h-6.564v114.297c0 1.584 1.358 2.942 2.943 2.942zM252.227 494.089h.679c1.585 0 2.943-1.358 2.943-2.942V376.85h-6.564v114.297c0 1.584 1.358 2.942 2.942 2.942zM415.751 494.089h.679c1.584 0 2.942-1.358 2.942-2.942V376.85h-6.563v114.297c0 1.584 1.358 2.942 2.942 2.942z" fill="#525252" stroke="#263238" stroke-miterlimit="10" stroke-linecap="round" stroke-linejoin="round"/>
    <path d="M241.638 379.493h183.893v-5.318H241.638v5.318zM241.638 436.161h183.893v-5.319H241.638v5.319zM322.501 425.398H274.52v5.318h47.981v-5.318z" fill="#fff" stroke="#263238" stroke-miterlimit="10" stroke-linecap="round" stroke-linejoin="round"/>
    <path d="M322.501 425.398h-21.614v5.318h21.614v-5.318zM395.38 425.398h-47.982v5.318h47.982v-5.318z" fill="#fff" stroke="#263238" stroke-miterlimit="10" stroke-linecap="round" stroke-linejoin="round"/>
    <path d="M395.38 425.398h-21.614v5.318h21.614v-5.318zM318.431 419.74h-47.982v5.318h47.982v-5.318z" fill="#fff" stroke="#263238" stroke-miterlimit="10" stroke-linecap="round" stroke-linejoin="round"/>
    <path d="M318.544 419.739H296.93v5.319h21.614v-5.319z" fill="#fff" stroke="#263238" stroke-miterlimit="10" stroke-linecap="round" stroke-linejoin="round"/>
    <path d="M20.012 494.089h495.662" stroke="#263238" stroke-miterlimit="10" stroke-linecap="round" stroke-linejoin="round"/>
</svg>
